<svg width="16" height="17" viewBox="0 0 16 17" fill="none" xmlns="http://www.w3.org/2000/svg">
<g clip-path="url(#clip0_18_178)">
<path d="M4.11331 12.8055C4.25105 12.4152 4.50647 12.0772 4.84438 11.8381C5.18229 11.599 5.58604 11.4706 5.99998 11.4706C6.41392 11.4706 6.81767 11.599 7.15558 11.8381C7.49349 12.0772 7.74891 12.4152 7.88665 12.8055H14.6666V14.1389H7.88665C7.74891 14.5292 7.49349 14.8673 7.15558 15.1064C6.81767 15.3455 6.41392 15.4738 5.99998 15.4738C5.58604 15.4738 5.18229 15.3455 4.84438 15.1064C4.50647 14.8673 4.25105 14.5292 4.11331 14.1389H1.33331V12.8055H4.11331ZM8.11331 8.13888C8.25105 7.74853 8.50647 7.4105 8.84438 7.17141C9.18229 6.93231 9.58604 6.80392 9.99998 6.80392C10.4139 6.80392 10.8177 6.93231 11.1556 7.17141C11.4935 7.4105 11.7489 7.74853 11.8866 8.13888H14.6666V9.47222H11.8866C11.7489 9.86257 11.4935 10.2006 11.1556 10.4397C10.8177 10.6788 10.4139 10.8072 9.99998 10.8072C9.58604 10.8072 9.18229 10.6788 8.84438 10.4397C8.50647 10.2006 8.25105 9.86257 8.11331 9.47222H1.33331V8.13888H8.11331ZM4.11331 3.47222C4.25105 3.08186 4.50647 2.74384 4.84438 2.50474C5.18229 2.26565 5.58604 2.13725 5.99998 2.13725C6.41392 2.13725 6.81767 2.26565 7.15558 2.50474C7.49349 2.74384 7.74891 3.08186 7.88665 3.47222H14.6666V4.80555H7.88665C7.74891 5.1959 7.49349 5.53393 7.15558 5.77302C6.81767 6.01212 6.41392 6.14052 5.99998 6.14052C5.58604 6.14052 5.18229 6.01212 4.84438 5.77302C4.50647 5.53393 4.25105 5.1959 4.11331 4.80555H1.33331V3.47222H4.11331ZM5.99998 4.80555C6.17679 4.80555 6.34636 4.73531 6.47138 4.61029C6.59641 4.48526 6.66665 4.31569 6.66665 4.13888C6.66665 3.96207 6.59641 3.7925 6.47138 3.66748C6.34636 3.54245 6.17679 3.47222 5.99998 3.47222C5.82317 3.47222 5.6536 3.54245 5.52858 3.66748C5.40355 3.7925 5.33331 3.96207 5.33331 4.13888C5.33331 4.31569 5.40355 4.48526 5.52858 4.61029C5.6536 4.73531 5.82317 4.80555 5.99998 4.80555ZM9.99998 9.47222C10.1768 9.47222 10.3464 9.40198 10.4714 9.27695C10.5964 9.15193 10.6666 8.98236 10.6666 8.80555C10.6666 8.62874 10.5964 8.45917 10.4714 8.33415C10.3464 8.20912 10.1768 8.13888 9.99998 8.13888C9.82317 8.13888 9.6536 8.20912 9.52858 8.33415C9.40355 8.45917 9.33331 8.62874 9.33331 8.80555C9.33331 8.98236 9.40355 9.15193 9.52858 9.27695C9.6536 9.40198 9.82317 9.47222 9.99998 9.47222ZM5.99998 14.1389C6.17679 14.1389 6.34636 14.0686 6.47138 13.9436C6.59641 13.8186 6.66665 13.649 6.66665 13.4722C6.66665 13.2954 6.59641 13.1258 6.47138 13.0008C6.34636 12.8758 6.17679 12.8055 5.99998 12.8055C5.82317 12.8055 5.6536 12.8758 5.52858 13.0008C5.40355 13.1258 5.33331 13.2954 5.33331 13.4722C5.33331 13.649 5.40355 13.8186 5.52858 13.9436C5.6536 14.0686 5.82317 14.1389 5.99998 14.1389Z" fill="#EEBB4D"/>
</g>
<defs>
<clipPath id="clip0_18_178">
<rect width="16" height="16" fill="white" transform="translate(0 0.80555)"/>
</clipPath>
</defs>
</svg>
