<svg width="16" height="16" viewBox="0 0 16 16" fill="none" xmlns="http://www.w3.org/2000/svg">
<g clip-path="url(#clip0_18_195)">
<path d="M14.6666 13.3333H1.33331V12H1.99998V7.354C1.99998 4.02867 4.68665 1.33333 7.99998 1.33333C11.3133 1.33333 14 4.02867 14 7.354V12H14.6666V13.3333ZM3.33331 12H12.6666V7.354C12.6666 4.76533 10.5773 2.66667 7.99998 2.66667C5.42265 2.66667 3.33331 4.76533 3.33331 7.354V12ZM6.33331 14H9.66665C9.66665 14.442 9.49105 14.8659 9.17849 15.1785C8.86593 15.4911 8.44201 15.6667 7.99998 15.6667C7.55795 15.6667 7.13403 15.4911 6.82147 15.1785C6.50891 14.8659 6.33331 14.442 6.33331 14Z" fill="#EEBB4D"/>
</g>
<defs>
<clipPath id="clip0_18_195">
<rect width="16" height="16" fill="white"/>
</clipPath>
</defs>
</svg>
