<svg width="16" height="17" viewBox="0 0 16 17" fill="none" xmlns="http://www.w3.org/2000/svg">
<g clip-path="url(#clip0_18_175)">
<path d="M12.0207 11.8836L14.876 14.7382L13.9327 15.6816L11.078 12.8262C10.0159 13.6777 8.69471 14.1408 7.33337 14.1389C4.02137 14.1389 1.33337 11.4509 1.33337 8.13888C1.33337 4.82688 4.02137 2.13888 7.33337 2.13888C10.6454 2.13888 13.3334 4.82688 13.3334 8.13888C13.3353 9.50022 12.8722 10.8214 12.0207 11.8836ZM10.6834 11.3889C11.5294 10.5188 12.002 9.3525 12 8.13888C12 5.56022 9.91137 3.47222 7.33337 3.47222C4.75471 3.47222 2.66671 5.56022 2.66671 8.13888C2.66671 10.7169 4.75471 12.8056 7.33337 12.8056C8.54699 12.8075 9.7133 12.335 10.5834 11.4889L10.6834 11.3889Z" fill="#573B00" fill-opacity="0.3"/>
</g>
<defs>
<clipPath id="clip0_18_175">
<rect width="16" height="16" fill="white" transform="translate(0 0.80555)"/>
</clipPath>
</defs>
</svg>
